# xmcd
#
# Track frame offsets: 
#        182
#        16627
#        42980
#        63705
#        72157
#        87517
#        110435
#        122402
#        143685
#        159070
#        174287
#        196405
#        233375
#        249990
#
# Disc length: 3550 seconds
#
# Revision: 1
# Processed by: cddbd v1.4PL0 Copyright (c) Steve Scherf et al.
# Submitted via: ExactAudioCopy v0.95a3
#
DISCID=a60ddc0e
DTITLE=Nikki Sudden and Rowland S. Howard - Kiss You Kidnapped Charabanc
DYEAR=1987
DGENRE=Alt. Rock
TTITLE0=Wedding Hotel
TTITLE1=Rebel Grave
TTITLE2=Sob Story
TTITLE3=Snowplough
TTITLE4=A Quick Thing
TTITLE5=Feather Beds
TTITLE6=French Revolution Blues
TTITLE7=Crossroads
TTITLE8=Don't Explain
TTITLE9=Hello Wolf (Little Baby)
TTITLE10=Better Blood
TTITLE11=Debutante Blues
TTITLE12=Girl Without A Name
TTITLE13=Wedding Hotel (The Moose)
EXTD=CRECD 022
EXTT0=
EXTT1=
EXTT2=
EXTT3=
EXTT4=
EXTT5=
EXTT6=
EXTT7=
EXTT8=
EXTT9=
EXTT10=
EXTT11=
EXTT12=
EXTT13=
PLAYORDER=
